<svg width="40" height="40" viewBox="0 0 40 40" fill="none" xmlns="http://www.w3.org/2000/svg">
<path d="M28.3332 35V31.6667C28.3332 29.8986 27.6308 28.2029 26.3806 26.9526C25.1303 25.7024 23.4346 25 21.6665 25H8.33317C6.56506 25 4.86937 25.7024 3.61913 26.9526C2.36888 28.2029 1.6665 29.8986 1.6665 31.6667V35" stroke="#3D5578" stroke-width="2" stroke-linecap="round" stroke-linejoin="round"/>
<path d="M15.0002 18.3333C18.6821 18.3333 21.6668 15.3486 21.6668 11.6667C21.6668 7.98477 18.6821 5 15.0002 5C11.3183 5 8.3335 7.98477 8.3335 11.6667C8.3335 15.3486 11.3183 18.3333 15.0002 18.3333Z" stroke="#3D5578" stroke-width="2" stroke-linecap="round" stroke-linejoin="round"/>
<path d="M38.3335 35V31.6667C38.3324 30.1896 37.8408 28.7546 36.9358 27.5872C36.0308 26.4198 34.7637 25.586 33.3335 25.2167" stroke="#3D5578" stroke-width="2" stroke-linecap="round" stroke-linejoin="round"/>
<path d="M26.6665 5.21667C28.1005 5.58384 29.3716 6.41784 30.2792 7.58719C31.1869 8.75654 31.6796 10.1947 31.6796 11.675C31.6796 13.1553 31.1869 14.5935 30.2792 15.7628C29.3716 16.9322 28.1005 17.7662 26.6665 18.1333" stroke="#3D5578" stroke-width="2" stroke-linecap="round" stroke-linejoin="round"/>
</svg>
